<?xml version="1.0" standalone="no"?>
<!DOCTYPE svg PUBLIC "-//W3C//DTD SVG 20010904//EN"
 "http://www.w3.org/TR/2001/REC-SVG-20010904/DTD/svg10.dtd">
<svg version="1.0" xmlns="http://www.w3.org/2000/svg"
 width="393.000000pt" height="393.000000pt" viewBox="0 0 393.000000 393.000000"
 preserveAspectRatio="xMidYMid meet">
<metadata>
Created by potrace 1.11, written by Peter Selinger 2001-2013
</metadata>
<g transform="translate(0.000000,393.000000) scale(0.100000,-0.100000)"
fill="#000000" stroke="none">
<path d="M928 3262 c-14 -2 -29 -11 -33 -20 -8 -19 -435 -1155 -655 -1740
l-148 -393 151 3 150 3 39 105 c21 58 51 143 68 190 16 47 51 144 77 215 l48
130 425 0 425 0 16 -45 c8 -25 57 -170 108 -322 l93 -278 159 0 c87 0 159 1
159 3 0 1 -52 147 -116 322 -63 176 -149 415 -190 530 -41 116 -79 219 -84
230 -5 11 -20 52 -33 90 -14 39 -41 113 -60 165 -19 52 -92 253 -162 445 -70
193 -130 354 -135 358 -8 9 -247 15 -302 9z m152 -392 c12 -36 46 -135 75
-220 30 -85 92 -267 139 -404 47 -138 86 -251 86 -251 0 -1 -151 -2 -335 -2
-184 -1 -335 1 -335 3 0 7 250 689 270 739 5 11 23 62 41 113 17 51 33 91 34
90 1 -2 12 -32 25 -68z"/>
<path d="M2335 3260 l-30 -5 0 -1070 0 -1070 146 -3 146 -3 1 478 c0 263 1
483 1 489 1 8 146 11 517 10 284 -1 521 2 527 6 9 5 13 105 8 228 l-1 25 -521
0 c-456 0 -522 2 -528 15 -5 11 -7 498 -2 616 l1 21 543 1 c298 0 568 1 599 1
l57 1 -1 130 c0 89 -4 130 -12 131 -50 4 -1428 3 -1451 -1z"/>
</g>
</svg>
